<svg xmlns="http://www.w3.org/2000/svg" viewBox="0 0 3368 900" fill="#1643D6" role="img"><title>CADÊNCIA</title><path transform="translate(0 820) scale(1 -1)" d="M230 -8Q145 -8 93.5 43.5Q42 95 42 180L42 521Q42 607 93.5 657.5Q145 708 230 708Q316 708 368 657.5Q420 607 420 521L420 509Q420 504 416.5 500Q413 496 408 496L315 492Q303 492 303 504L303 529Q303 564 283 586Q263 608 230 608Q198 608 178 586Q158 564 158 529L158 171Q158 136 178 114Q198 92 230 92Q263 92 283 114Q303 136 303 171L303 196Q303 201 306.5 204.5Q310 208 315 208L408 204Q413 204 416.5 200.5Q420 197 420 192L420 180Q420 95 368 43.5Q316 -8 230 -8Z"/><path transform="translate(445 820) scale(1 -1)" d="M338 0Q326 0 325 11L306 116Q306 121 300 121L154 121Q148 121 148 116L129 11Q128 0 116 0L25 0Q11 0 14 13L162 689Q164 700 175 700L281 700Q292 700 294 689L442 13L442 9Q442 0 431 0L338 0ZM166 217Q165 212 171 212L282 212Q288 212 287 217L229 533Q228 536 226 536Q224 536 223 533L166 217Z"/><path transform="translate(889 820) scale(1 -1)" d="M66 0Q61 0 57.5 3.5Q54 7 54 12L54 688Q54 693 57.5 696.5Q61 700 66 700L237 700Q323 700 374.5 648Q426 596 426 509L426 191Q426 104 374.5 52Q323 0 237 0L66 0ZM170 105Q170 100 175 100L235 101Q268 101 288.5 127.5Q309 154 310 198L310 502Q310 547 289.5 573.5Q269 600 234 600L175 600Q170 600 170 595L170 105Z"/><path transform="translate(1349 820) scale(1 -1)" d="M403 612Q403 607 399.5 603.5Q396 600 391 600L175 600Q170 600 170 595L170 406Q170 401 175 401L303 401Q308 401 311.5 397.5Q315 394 315 389L315 312Q315 307 311.5 303.5Q308 300 303 300L175 300Q170 300 170 295L170 105Q170 100 175 100L391 100Q396 100 399.5 96.5Q403 93 403 88L403 12Q403 7 399.5 3.5Q396 0 391 0L66 0Q61 0 57.5 3.5Q54 7 54 12L54 688Q54 693 57.5 696.5Q61 700 66 700L391 700Q396 700 399.5 696.5Q403 693 403 688L403 612ZM106 764Q99 764 96.5 767.5Q94 771 98 778L161 881Q165 889 175 889L278 889Q287 889 292 881L358 778Q360 772 360 771Q360 764 350 764L280 764Q270 764 265 772L231 835Q228 840 225 835L190 772Q185 764 175 764L106 764Z"/><path transform="translate(1772 820) scale(1 -1)" d="M338 688Q338 693 341.5 696.5Q345 700 350 700L441 700Q446 700 449.5 696.5Q453 693 453 688L453 12Q453 7 449.5 3.5Q446 0 441 0L336 0Q326 0 323 10L174 434Q173 437 170.5 436.5Q168 436 168 433L169 12Q169 7 165.5 3.5Q162 0 157 0L66 0Q61 0 57.5 3.5Q54 7 54 12L54 688Q54 693 57.5 696.5Q61 700 66 700L169 700Q179 700 182 690L332 269Q333 266 335.5 266.5Q338 267 338 270L338 688Z"/><path transform="translate(2267 820) scale(1 -1)" d="M230 -8Q145 -8 93.5 43.5Q42 95 42 180L42 521Q42 607 93.5 657.5Q145 708 230 708Q316 708 368 657.5Q420 607 420 521L420 509Q420 504 416.5 500Q413 496 408 496L315 492Q303 492 303 504L303 529Q303 564 283 586Q263 608 230 608Q198 608 178 586Q158 564 158 529L158 171Q158 136 178 114Q198 92 230 92Q263 92 283 114Q303 136 303 171L303 196Q303 201 306.5 204.5Q310 208 315 208L408 204Q413 204 416.5 200.5Q420 197 420 192L420 180Q420 95 368 43.5Q316 -8 230 -8Z"/><path transform="translate(2712 820) scale(1 -1)" d="M66 0Q61 0 57.5 3.5Q54 7 54 12L54 688Q54 693 57.5 696.5Q61 700 66 700L158 700Q163 700 166.5 696.5Q170 693 170 688L170 12Q170 7 166.5 3.5Q163 0 158 0L66 0Z"/><path transform="translate(2924 820) scale(1 -1)" d="M338 0Q326 0 325 11L306 116Q306 121 300 121L154 121Q148 121 148 116L129 11Q128 0 116 0L25 0Q11 0 14 13L162 689Q164 700 175 700L281 700Q292 700 294 689L442 13L442 9Q442 0 431 0L338 0ZM166 217Q165 212 171 212L282 212Q288 212 287 217L229 533Q228 536 226 536Q224 536 223 533L166 217Z"/></svg>